<svg width="164" height="36" viewBox="0 0 164 36" fill="none" xmlns="http://www.w3.org/2000/svg">
<g clip-path="url(#clip0_1_31)">
<path d="M5.2775 27.214C6.69194 28.2318 8.9852 28.2318 10.3997 27.214C11.8141 26.1963 11.8141 24.5461 10.3997 23.5284C8.9852 22.5106 6.69194 22.5106 5.2775 23.5284C3.86306 24.5461 3.86306 26.1963 5.2775 27.214Z" fill="#1C64F2"/>
<path d="M19.9581 13.393C22.0798 14.9196 25.5197 14.9196 27.6414 13.393C29.763 11.8664 29.763 9.39124 27.6414 7.86463C25.5197 6.338 22.0798 6.338 19.9581 7.86463C17.8365 9.39124 17.8365 11.8664 19.9581 13.393Z" fill="#1C64F2"/>
<path d="M12.1651 20.3035C13.9331 21.5757 16.7997 21.5757 18.5677 20.3035C20.3358 19.0313 20.3358 16.9687 18.5677 15.6965C16.7997 14.4243 13.9331 14.4243 12.1651 15.6965C10.397 16.9687 10.397 19.0313 12.1651 20.3035Z" fill="#1C64F2"/>
<path d="M0.795623 19.3821C1.85645 20.1454 3.5764 20.1454 4.63723 19.3821C5.69806 18.6188 5.69806 17.3813 4.63723 16.6179C3.5764 15.8546 1.85645 15.8546 0.795623 16.6179C-0.265208 17.3813 -0.265207 18.6188 0.795623 19.3821Z" fill="#1C64F2"/>
<path d="M12.1651 5.56113C13.9331 6.83331 16.7997 6.83331 18.5677 5.56113C20.3358 4.28895 20.3358 2.22633 18.5677 0.954142C16.7997 -0.318046 13.9331 -0.318047 12.1651 0.954142C10.397 2.22633 10.397 4.28895 12.1651 5.56113Z" fill="#1C64F2"/>
<path d="M5.2775 12.4716C6.69194 13.4894 8.9852 13.4894 10.3997 12.4716C11.8141 11.4539 11.8141 9.80375 10.3997 8.78604C8.9852 7.76829 6.69194 7.76829 5.2775 8.78604C3.86306 9.80375 3.86307 11.4539 5.2775 12.4716Z" fill="#1C64F2"/>
<path d="M12.1651 35.0459C13.9331 36.318 16.7997 36.318 18.5677 35.0459C20.3358 33.7737 20.3358 31.7111 18.5677 30.4389C16.7997 29.1667 13.9331 29.1667 12.1651 30.4389C10.397 31.7111 10.397 33.7737 12.1651 35.0459Z" fill="#1C64F2"/>
<path d="M29.2969 20.7642C31.4186 22.2908 34.8586 22.2908 36.9802 20.7642C39.1019 19.2376 39.1019 16.7625 36.9802 15.2359C34.8586 13.7092 31.4186 13.7092 29.2969 15.2359C27.1753 16.7625 27.1753 19.2376 29.2969 20.7642Z" fill="#1C64F2"/>
<path d="M19.9581 28.1353C22.0798 29.662 25.5197 29.662 27.6414 28.1353C29.763 26.6087 29.763 24.1336 27.6414 22.607C25.5197 21.0804 22.0798 21.0804 19.9581 22.607C17.8365 24.1336 17.8365 26.6087 19.9581 28.1353Z" fill="#1C64F2"/>
</g>
<path d="M43.9714 9.45383V6.25909H59.0234V9.45383H53.4125V24.5864H49.5824V9.45383H43.9714Z" fill="#1C64F2"/>
<path d="M65.7015 24.8548C64.2876 24.8548 63.0705 24.5685 62.0504 23.9957C61.0362 23.417 60.2546 22.5997 59.7058 21.5438C59.1569 20.4818 58.8825 19.226 58.8825 17.7763C58.8825 16.3624 59.1569 15.1214 59.7058 14.0536C60.2546 12.9857 61.0272 12.1534 62.0235 11.5568C63.0258 10.9602 64.2011 10.6619 65.5494 10.6619C66.4562 10.6619 67.3004 10.8081 68.0819 11.1004C68.8694 11.3868 69.5555 11.8193 70.1401 12.398C70.7308 12.9767 71.1901 13.7045 71.5183 14.5815C71.8464 15.4526 72.0105 16.4727 72.0105 17.642V18.6891H60.4038V16.3266H68.422C68.422 15.7777 68.3026 15.2915 68.064 14.8679C67.8254 14.4443 67.4943 14.1132 67.0707 13.8746C66.6531 13.63 66.1668 13.5077 65.612 13.5077C65.0333 13.5077 64.5203 13.6419 64.0728 13.9104C63.6313 14.1729 63.2853 14.5278 63.0347 14.9753C62.7842 15.4168 62.6559 15.9089 62.6499 16.4518V18.698C62.6499 19.3781 62.7752 19.9658 63.0258 20.4609C63.2823 20.9561 63.6433 21.3379 64.1086 21.6064C64.5739 21.8749 65.1258 22.0091 65.7641 22.0091C66.1877 22.0091 66.5755 21.9494 66.9275 21.8301C67.2795 21.7108 67.5808 21.5318 67.8313 21.2932C68.0819 21.0545 68.2728 20.7622 68.4041 20.4162L71.9299 20.6489C71.7509 21.496 71.384 22.2358 70.8292 22.8682C70.2803 23.4946 69.5704 23.9838 68.6994 24.3358C67.8343 24.6818 66.835 24.8548 65.7015 24.8548Z" fill="#1C64F2"/>
<path d="M80.7087 24.8548C79.3008 24.8548 78.0897 24.5565 77.0755 23.9599C76.0673 23.3574 75.2917 22.5222 74.7488 21.4543C74.2119 20.3864 73.9434 19.1574 73.9434 17.7673C73.9434 16.3594 74.2149 15.1244 74.7578 14.0625C75.3066 12.9946 76.0852 12.1624 77.0934 11.5658C78.1016 10.9632 79.3008 10.6619 80.6908 10.6619C81.89 10.6619 82.94 10.8797 83.8409 11.3152C84.7417 11.7507 85.4546 12.3622 85.9796 13.1497C86.5046 13.9372 86.794 14.8619 86.8477 15.9239H83.2502C83.1488 15.2378 82.8803 14.6859 82.4448 14.2683C82.0153 13.8447 81.4515 13.633 80.7535 13.633C80.1629 13.633 79.6468 13.794 79.2053 14.1162C78.7698 14.4324 78.4298 14.8947 78.1852 15.5033C77.9406 16.1118 77.8183 16.8486 77.8183 17.7136C77.8183 18.5906 77.9376 19.3364 78.1762 19.9509C78.4208 20.5653 78.7639 21.0337 79.2053 21.3558C79.6468 21.678 80.1629 21.8391 80.7535 21.8391C81.189 21.8391 81.5798 21.7496 81.9258 21.5706C82.2778 21.3916 82.5671 21.1321 82.7938 20.792C83.0265 20.446 83.1786 20.0314 83.2502 19.5482H86.8477C86.788 20.5982 86.5016 21.5229 85.9886 22.3223C85.4815 23.1158 84.7805 23.7362 83.8856 24.1837C82.9907 24.6311 81.9318 24.8548 80.7087 24.8548Z" fill="#1C64F2"/>
<path d="M93.1007 16.6398V24.5864H89.2885V6.25909H92.9933V13.2661H93.1544C93.4646 12.4547 93.9657 11.8193 94.6578 11.3599C95.3498 10.8946 96.2179 10.6619 97.2619 10.6619C98.2165 10.6619 99.0487 10.8707 99.7586 11.2884C100.475 11.7 101.029 12.2936 101.423 13.0692C101.823 13.8388 102.02 14.7605 102.014 15.8344V24.5864H98.2015V16.5145C98.2075 15.6673 97.9927 15.0081 97.5572 14.5368C97.1277 14.0655 96.5251 13.8298 95.7495 13.8298C95.2305 13.8298 94.7711 13.9402 94.3714 14.1609C93.9777 14.3817 93.6674 14.7038 93.4407 15.1274C93.22 15.545 93.1067 16.0491 93.1007 16.6398Z" fill="#1C64F2"/>
<path d="M116.451 14.7605L112.96 14.9753C112.901 14.677 112.773 14.4085 112.576 14.1699C112.379 13.9253 112.119 13.7314 111.797 13.5882C111.481 13.4391 111.102 13.3645 110.661 13.3645C110.07 13.3645 109.572 13.4898 109.166 13.7403C108.76 13.9849 108.558 14.3131 108.558 14.7247C108.558 15.0528 108.689 15.3303 108.951 15.557C109.214 15.7837 109.664 15.9656 110.303 16.1028L112.79 16.604C114.127 16.8784 115.123 17.3199 115.779 17.9284C116.436 18.5369 116.764 19.3364 116.764 20.3267C116.764 21.2276 116.498 22.018 115.967 22.6982C115.442 23.3783 114.72 23.9092 113.802 24.2911C112.889 24.6669 111.836 24.8548 110.643 24.8548C108.823 24.8548 107.373 24.476 106.294 23.7183C105.22 22.9547 104.59 21.9166 104.405 20.6041L108.155 20.4072C108.268 20.9621 108.543 21.3857 108.978 21.678C109.414 21.9643 109.972 22.1075 110.652 22.1075C111.32 22.1075 111.857 21.9793 112.262 21.7227C112.674 21.4602 112.883 21.1232 112.889 20.7115C112.883 20.3655 112.737 20.0821 112.45 19.8614C112.164 19.6347 111.723 19.4616 111.126 19.3423L108.746 18.868C107.403 18.5996 106.404 18.1342 105.748 17.472C105.097 16.8098 104.772 15.9656 104.772 14.9395C104.772 14.0565 105.011 13.2959 105.488 12.6575C105.971 12.0192 106.649 11.527 107.52 11.181C108.397 10.8349 109.423 10.6619 110.598 10.6619C112.334 10.6619 113.7 11.0288 114.697 11.7626C115.699 12.4964 116.283 13.4957 116.451 14.7605Z" fill="#1C64F2"/>
<path d="M122.976 16.6398V24.5864H119.164V6.25909H122.869V13.2661H123.03C123.34 12.4547 123.842 11.8193 124.534 11.3599C125.226 10.8946 126.094 10.6619 127.138 10.6619C128.092 10.6619 128.924 10.8707 129.634 11.2884C130.35 11.7 130.905 12.2936 131.299 13.0692C131.699 13.8388 131.896 14.7605 131.89 15.8344V24.5864H128.077V16.5145C128.083 15.6673 127.869 15.0081 127.433 14.5368C127.003 14.0655 126.401 13.8298 125.625 13.8298C125.106 13.8298 124.647 13.9402 124.247 14.1609C123.853 14.3817 123.543 14.7038 123.317 15.1274C123.096 15.545 122.982 16.0491 122.976 16.6398Z" fill="#1C64F2"/>
<path d="M141.1 24.8548C139.71 24.8548 138.508 24.5595 137.494 23.9689C136.486 23.3723 135.707 22.543 135.158 21.4811C134.609 20.4132 134.335 19.1753 134.335 17.7673C134.335 16.3474 134.609 15.1065 135.158 14.0446C135.707 12.9767 136.486 12.1474 137.494 11.5568C138.508 10.9602 139.71 10.6619 141.1 10.6619C142.49 10.6619 143.689 10.9602 144.698 11.5568C145.712 12.1474 146.493 12.9767 147.042 14.0446C147.591 15.1065 147.866 16.3474 147.866 17.7673C147.866 19.1753 147.591 20.4132 147.042 21.4811C146.493 22.543 145.712 23.3723 144.698 23.9689C143.689 24.5595 142.49 24.8548 141.1 24.8548ZM141.118 21.9017C141.75 21.9017 142.278 21.7227 142.702 21.3648C143.126 21.0009 143.445 20.5057 143.66 19.8793C143.88 19.2528 143.991 18.5399 143.991 17.7405C143.991 16.941 143.88 16.2281 143.66 15.6017C143.445 14.9753 143.126 14.4801 142.702 14.1162C142.278 13.7523 141.75 13.5703 141.118 13.5703C140.48 13.5703 139.943 13.7523 139.507 14.1162C139.078 14.4801 138.753 14.9753 138.532 15.6017C138.317 16.2281 138.21 16.941 138.21 17.7405C138.21 18.5399 138.317 19.2528 138.532 19.8793C138.753 20.5057 139.078 21.0009 139.507 21.3648C139.943 21.7227 140.48 21.9017 141.118 21.9017Z" fill="#1C64F2"/>
<path d="M150.344 29.7409V10.8409H154.103V13.1497H154.273C154.44 12.7798 154.682 12.404 154.998 12.0222C155.32 11.6344 155.738 11.3122 156.251 11.0557C156.77 10.7932 157.414 10.6619 158.184 10.6619C159.186 10.6619 160.111 10.9244 160.958 11.4494C161.805 11.9685 162.482 12.753 162.989 13.803C163.496 14.847 163.75 16.1565 163.75 17.7315C163.75 19.2648 163.502 20.5594 163.007 21.6153C162.518 22.6653 161.85 23.4618 161.002 24.0047C160.161 24.5416 159.219 24.8101 158.175 24.8101C157.435 24.8101 156.805 24.6878 156.286 24.4432C155.773 24.1986 155.353 23.8913 155.025 23.5214C154.696 23.1456 154.446 22.7668 154.273 22.3849H154.157V29.7409H150.344ZM154.076 17.7136C154.076 18.531 154.189 19.2439 154.416 19.8524C154.643 20.4609 154.971 20.9352 155.4 21.2753C155.83 21.6094 156.352 21.7764 156.966 21.7764C157.587 21.7764 158.112 21.6064 158.541 21.2663C158.971 20.9203 159.296 20.443 159.517 19.8345C159.744 19.22 159.857 18.5131 159.857 17.7136C159.857 16.9202 159.747 16.2222 159.526 15.6196C159.305 15.017 158.98 14.5457 158.55 14.2057C158.121 13.8656 157.593 13.6956 156.966 13.6956C156.346 13.6956 155.821 13.8597 155.391 14.1878C154.968 14.5159 154.643 14.9812 154.416 15.5838C154.189 16.1864 154.076 16.8963 154.076 17.7136Z" fill="#1C64F2"/>
<defs>
<clipPath id="clip0_1_31">
<rect width="38.5714" height="36" fill="white"/>
</clipPath>
</defs>
</svg>
